<?xml version="1.0" standalone="no"?>
<!DOCTYPE svg PUBLIC "-//W3C//DTD SVG 20010904//EN"
 "http://www.w3.org/TR/2001/REC-SVG-20010904/DTD/svg10.dtd">
<svg version="1.0" xmlns="http://www.w3.org/2000/svg"
 width="1920.000000pt" height="1920.000000pt" viewBox="0 0 1920.000000 1920.000000"
 preserveAspectRatio="xMidYMid meet">

<g transform="translate(0.000000,1920.000000) scale(0.100000,-0.100000)"
fill="#000000" stroke="none">
<path d="M6725 16869 c-461 -42 -876 -186 -1181 -412 -83 -61 -262 -239 -325
-322 -404 -535 -537 -1306 -437 -2545 6 -80 12 -298 12 -485 1 -324 -1 -348
-27 -520 -29 -185 -52 -297 -88 -432 -78 -293 -236 -641 -421 -925 l-70 -108
-134 0 -134 0 -41 -37 c-75 -67 -83 -95 -89 -293 -3 -96 -9 -182 -15 -190 -5
-9 -28 -40 -51 -70 -798 -1067 -1288 -2070 -1428 -2925 -47 -286 -54 -493 -30
-825 l6 -85 -61 -65 c-34 -36 -133 -161 -222 -277 -88 -117 -186 -236 -217
-264 -54 -47 -184 -119 -277 -152 -365 -128 -473 -183 -596 -306 -78 -78 -149
-195 -186 -306 -25 -74 -27 -92 -27 -250 0 -142 6 -206 33 -385 39 -254 49
-423 31 -501 -7 -30 -31 -108 -52 -174 -64 -194 -90 -338 -90 -490 0 -107 4
-143 22 -200 46 -145 118 -245 227 -318 180 -120 384 -170 943 -232 401 -45
663 -93 868 -159 136 -45 164 -56 362 -151 220 -105 277 -130 405 -173 185
-63 388 -111 555 -132 107 -13 403 -13 495 0 275 39 503 147 676 319 78 78
113 125 178 232 11 20 28 42 36 49 8 6 58 16 113 20 94 8 210 26 447 70 470
86 713 115 960 115 160 0 209 -5 475 -41 481 -66 727 -88 895 -83 114 4 117 2
152 -95 36 -98 120 -245 193 -334 28 -35 48 -67 45 -70 -4 -4 -239 -7 -523 -8
l-517 0 -125 -53 c-141 -60 -460 -220 -460 -231 0 -10 2148 -16 3968 -12 1248
4 1502 7 1490 18 -20 20 -338 176 -468 230 l-115 48 -667 0 c-366 1 -669 3
-671 6 -3 3 38 40 91 82 117 93 239 212 382 373 253 284 407 388 1060 716
l345 174 1555 5 1555 5 41 22 c22 12 56 39 74 59 68 78 65 46 68 711 l3 603
-236 0 -235 0 0 -370 0 -370 -5490 0 -5490 0 3 3177 2 3178 5485 0 5485 0 3
-497 2 -498 229 0 228 0 6 48 c3 26 4 304 2 618 -4 621 -3 605 -61 681 -52 69
200 63 -2812 63 l-2728 0 -156 208 c-224 299 -324 454 -434 671 -109 217 -195
476 -235 711 -6 40 -14 348 -19 795 -8 760 -17 950 -60 1255 -78 554 -224 983
-450 1320 -96 142 -283 339 -410 432 -273 198 -581 310 -990 358 -98 12 -523
11 -655 -1z m814 -2064 c397 -94 670 -621 586 -1130 -23 -142 -59 -244 -129
-370 -44 -80 -73 -115 -94 -115 -12 0 -201 71 -319 120 -24 10 -32 53 -12 65
17 11 59 116 80 200 50 209 1 453 -117 584 -141 157 -351 104 -459 -115 -52
-105 -65 -161 -72 -307 -4 -83 -10 -130 -18 -133 -6 -3 -36 6 -66 19 -29 13
-92 37 -139 52 -47 15 -92 34 -100 42 -26 24 -21 304 8 418 70 288 220 502
431 618 116 64 282 84 420 52z m-1868 -145 c183 -62 325 -235 403 -490 47
-155 72 -415 44 -453 -7 -9 -45 -29 -83 -45 -39 -16 -97 -43 -129 -60 -32 -17
-64 -28 -71 -26 -8 4 -14 40 -17 112 -12 233 -118 414 -251 429 -101 12 -184
-79 -221 -244 -40 -177 6 -408 104 -527 22 -27 40 -50 40 -53 0 -31 -145 -138
-173 -127 -27 10 -105 121 -147 208 -75 156 -109 320 -110 517 0 373 158 676
396 758 76 26 139 26 215 1z m969 -1060 c157 -40 303 -103 475 -205 144 -86
178 -102 340 -160 352 -127 478 -186 567 -265 97 -86 142 -210 119 -323 -22
-103 -85 -213 -175 -303 -129 -128 -257 -207 -463 -284 -138 -52 -206 -87
-373 -192 -308 -194 -487 -258 -720 -258 -100 0 -227 19 -296 43 -117 42 -193
95 -394 271 -69 60 -190 152 -270 204 -269 175 -399 338 -408 510 -8 147 31
197 321 410 109 79 242 185 295 235 230 213 404 307 637 341 66 10 268 -4 345
-24z m1522 -1295 c60 -242 197 -665 352 -1087 l35 -98 -1749 0 c-963 0 -1750
1 -1750 3 0 1 7 25 16 52 78 251 154 625 170 835 4 47 12 88 17 92 6 3 23 0
38 -7 74 -39 247 -163 348 -251 225 -196 306 -250 452 -299 199 -68 483 -59
709 21 110 40 216 97 483 263 94 58 171 96 247 121 94 31 254 109 340 166 41
27 115 88 165 137 49 48 96 86 104 85 9 -2 19 -17 23 -33z m-4374 -2764 c-3
-56 -13 -85 -62 -186 -238 -491 -346 -894 -346 -1298 0 -336 73 -606 242 -889
56 -94 71 -90 81 22 28 310 63 560 78 560 5 0 9 -248 9 -585 0 -487 -2 -585
-14 -585 -7 0 -51 35 -97 77 -271 250 -415 505 -481 851 -30 154 -32 439 -5
612 57 363 175 713 387 1145 82 166 159 312 188 355 15 23 17 23 20 6 2 -11 2
-49 0 -85z m-856 -2862 c272 -65 516 -311 807 -814 l46 -80 5 -960 5 -960 30
-48 c28 -44 82 -91 130 -113 11 -5 281 -11 600 -14 l580 -5 32 -60 c18 -33 46
-103 64 -155 77 -232 35 -528 -106 -740 -190 -286 -586 -426 -1061 -376 -331
35 -612 122 -973 301 -388 192 -600 242 -1446 341 -423 49 -608 103 -724 213
-146 136 -153 400 -22 785 40 117 61 229 61 330 0 79 -27 311 -55 471 -21 124
-29 319 -16 405 15 97 64 198 135 277 94 103 156 135 520 268 292 106 359 162
629 522 303 402 456 485 759 412z m4732 -2998 c-13 -14 -290 -94 -409 -120
-228 -49 -307 -56 -595 -56 -297 1 -409 13 -630 71 -113 29 -301 92 -314 105
-6 5 395 9 974 9 608 0 980 -4 974 -9z m1712 -6 c19 -49 -40 -593 -91 -833
-47 -221 -127 -462 -164 -496 -13 -12 -32 -14 -90 -9 -69 6 -77 9 -130 53
-136 113 -274 321 -316 475 -21 81 -30 296 -17 426 13 127 60 369 74 386 8 10
94 13 370 13 307 0 359 -2 364 -15z m2611 9 c-3 -3 -85 -46 -182 -95 -429
-216 -664 -385 -897 -646 -121 -135 -257 -270 -348 -347 -85 -73 -201 -149
-210 -140 -4 5 -19 45 -33 89 -85 262 -154 671 -164 973 l-6 172 923 0 c508 0
921 -3 917 -6z"/>
<path d="M7713 12745 c-34 -13 -86 -37 -116 -54 -68 -37 -258 -149 -352 -206
-108 -65 -332 -180 -415 -213 -137 -54 -158 -61 -272 -87 -149 -35 -341 -37
-463 -5 -253 66 -420 170 -728 452 -131 121 -167 130 -167 43 0 -40 4 -45 93
-126 226 -206 341 -294 484 -367 396 -203 765 -186 1255 58 114 58 201 106
409 231 161 96 322 179 348 179 42 1 72 60 51 99 -14 27 -48 26 -127 -4z"/>
<path d="M15610 9495 c-100 -15 -100 -15 -170 -34 -47 -13 -131 -50 -140 -61
-3 -4 -30 -23 -60 -42 -79 -51 -300 -275 -300 -305 0 -4 -10 -24 -23 -43 -27
-40 -87 -174 -87 -193 0 -15 40 -36 135 -72 39 -14 79 -30 90 -35 11 -5 45
-14 75 -21 30 -7 62 -15 70 -19 66 -33 372 -58 465 -39 92 18 140 32 175 49
19 10 56 27 81 39 71 33 259 209 259 242 0 6 11 27 25 47 14 20 25 47 25 60 0
47 66 36 135 -22 l40 -34 -24 -48 c-43 -90 -226 -356 -267 -390 -16 -13 -106
-10 -163 6 -22 6 -53 8 -68 5 -113 -24 -223 -68 -293 -119 -74 -54 -197 -178
-244 -246 -61 -90 -133 -180 -190 -239 -91 -96 -200 -195 -230 -211 -16 -8
-61 -44 -100 -79 -39 -35 -95 -82 -124 -105 -29 -22 -55 -49 -58 -58 -3 -10
-9 -18 -15 -18 -5 0 -21 -19 -35 -42 -15 -23 -35 -51 -46 -62 -36 -39 -97
-156 -127 -244 -99 -291 -71 -618 74 -857 49 -82 151 -208 227 -282 53 -51
183 -124 263 -148 33 -9 72 -23 86 -31 29 -14 253 -55 409 -74 52 -6 129 -20
172 -31 92 -23 184 -24 297 -4 116 20 143 30 241 88 279 165 415 332 496 607
27 88 29 108 29 270 0 193 -6 230 -75 450 -68 218 -90 295 -90 321 0 13 -9 85
-20 159 -10 74 -24 185 -29 245 -25 269 -47 347 -135 474 -20 29 -36 56 -36
60 0 4 -19 21 -42 37 -24 17 -49 42 -57 57 -13 25 -12 29 25 79 22 29 47 64
57 78 9 14 37 52 62 85 70 95 225 364 225 391 0 18 -45 51 -87 65 -32 10 -38
9 -50 -6 -7 -10 -16 -40 -19 -67 -4 -26 -12 -55 -19 -64 -10 -15 -15 -14 -53
10 -23 14 -59 33 -81 42 -28 11 -52 33 -83 76 -23 34 -60 81 -82 106 -39 46
-127 122 -142 122 -4 0 -15 7 -25 16 -25 22 -146 63 -204 68 -27 3 -93 -2
-145 -9z"/>
<path d="M7400 9330 l-265 -5 0 -135 0 -135 266 -3 266 -2 7 -928 c7 -916 11
-1042 43 -1171 36 -149 127 -278 233 -329 185 -88 499 -79 723 20 26 12 47 26
47 32 0 6 -9 64 -20 129 -11 65 -20 123 -20 129 0 6 -7 7 -17 3 -136 -57 -307
-92 -400 -81 -140 16 -203 79 -238 236 -15 67 -17 183 -21 1060 -2 542 -7
1031 -10 1088 l-6 102 -161 -2 c-89 -1 -281 -5 -427 -8z"/>
<path d="M18343 9103 c-4 -9 -3 -432 1 -942 4 -509 5 -923 3 -921 -3 3 -56
127 -120 275 -199 468 -329 735 -557 1150 -136 247 -234 422 -242 433 -8 9
-55 12 -174 12 l-164 0 0 -568 c0 -313 3 -866 7 -1230 l6 -662 149 0 148 0 -6
973 c-5 666 -3 969 4 962 22 -22 389 -736 462 -900 13 -27 54 -117 93 -200 38
-82 96 -211 129 -285 33 -74 66 -148 74 -165 7 -16 47 -109 88 -205 l74 -175
166 0 166 -1 0 746 c0 410 -3 965 -7 1233 l-6 488 -144 -2 c-120 -1 -145 -4
-150 -16z"/>
<path d="M9605 9083 c-16 -1 -95 -10 -174 -19 -80 -9 -162 -21 -184 -28 l-38
-11 0 -795 c1 -437 4 -983 8 -1214 l6 -419 75 7 c41 3 113 6 159 6 l83 0 0
455 0 455 153 0 c309 0 488 29 642 105 193 94 314 247 366 460 17 70 22 121
22 230 0 175 -17 259 -79 382 -104 209 -301 336 -584 379 -86 12 -371 17 -455
7z m459 -298 c124 -33 227 -110 277 -207 31 -61 49 -157 49 -268 0 -178 -38
-288 -128 -372 -108 -102 -209 -129 -503 -135 l-216 -5 -8 491 c-4 271 -4 495
0 499 24 24 436 22 529 -3z"/>
<path d="M11614 8735 c21 -16 32 -13 21 4 -3 6 -14 11 -23 11 -15 -1 -15 -2 2
-15z"/>
<path d="M13970 8514 c-194 -19 -334 -46 -544 -106 l-109 -32 6 -455 c4 -251
7 -644 7 -873 l0 -418 165 0 164 0 -6 768 -6 767 109 22 c60 12 156 28 214 34
139 16 396 6 515 -20 50 -11 92 -18 94 -16 5 6 51 237 51 261 0 27 -12 32
-130 50 -93 14 -442 26 -530 18z"/>
<path d="M11815 8500 c-385 -61 -662 -344 -731 -747 -24 -141 -15 -382 20
-518 49 -192 155 -360 292 -463 190 -143 410 -202 703 -189 182 8 290 28 434
79 50 18 57 24 57 47 0 28 -38 242 -44 248 -2 2 -16 -2 -32 -8 -16 -6 -69 -23
-119 -36 -125 -34 -422 -44 -542 -18 -259 56 -412 229 -449 507 l-7 48 420 0
c231 0 529 3 663 7 l243 6 -7 142 c-17 366 -87 561 -260 722 -76 71 -175 123
-291 153 -91 23 -265 33 -350 20z m270 -296 c28 -10 66 -27 85 -39 51 -32 125
-115 154 -174 32 -63 58 -170 54 -225 l-3 -41 -482 -3 -483 -4 0 26 c0 14 11
60 25 104 75 238 286 391 520 378 44 -3 103 -13 130 -22z"/>
<path d="M5890 8469 c-351 -41 -605 -246 -729 -588 l-35 -96 -4 -244 c-4 -263
1 -306 55 -451 93 -250 306 -436 579 -505 88 -23 116 -25 316 -25 182 0 237 4
320 20 124 26 228 59 235 76 4 11 -35 263 -42 272 -2 2 -19 -3 -38 -12 -180
-75 -512 -98 -688 -47 -196 56 -323 173 -383 353 -28 82 -47 186 -36 193 4 3
301 5 659 5 576 1 653 3 658 16 3 9 1 93 -6 188 -16 254 -60 414 -152 551 -88
132 -216 223 -369 264 -67 18 -99 23 -230 35 -19 2 -69 0 -110 -5z m226 -295
c100 -29 198 -114 247 -217 27 -59 57 -178 57 -231 l0 -36 -490 0 -490 0 6 28
c45 207 147 348 308 427 110 55 235 65 362 29z"/>
</g>
</svg>
